<svg width="171" height="171" viewBox="0 0 171 171" fill="none" xmlns="http://www.w3.org/2000/svg">
<circle cx="85.5" cy="85.5" r="75" fill="#FFE600" stroke="#FF9900" stroke-width="5"/>
<path d="M167.5 120.5C167.5 121.519 167.029 122.698 165.745 123.999C164.451 125.31 162.454 126.606 159.789 127.748C154.468 130.028 146.943 131.5 138.5 131.5C130.057 131.5 122.532 130.028 117.211 127.748C114.546 126.606 112.549 125.31 111.255 123.999C109.971 122.698 109.5 121.519 109.5 120.5C109.5 119.481 109.971 118.302 111.255 117.001C112.549 115.69 114.546 114.394 117.211 113.252C122.532 110.972 130.057 109.5 138.5 109.5C146.943 109.5 154.468 110.972 159.789 113.252C162.454 114.394 164.451 115.69 165.745 117.001C167.029 118.302 167.5 119.481 167.5 120.5Z" fill="#FF2E00" stroke="#EB0000" stroke-width="5"/>
<path d="M167.5 111.5C167.5 112.519 167.029 113.698 165.745 114.999C164.451 116.31 162.454 117.606 159.789 118.748C154.468 121.028 146.943 122.5 138.5 122.5C130.057 122.5 122.532 121.028 117.211 118.748C114.546 117.606 112.549 116.31 111.255 114.999C109.971 113.698 109.5 112.519 109.5 111.5C109.5 110.481 109.971 109.302 111.255 108.001C112.549 106.69 114.546 105.394 117.211 104.252C122.532 101.972 130.057 100.5 138.5 100.5C146.943 100.5 154.468 101.972 159.789 104.252C162.454 105.394 164.451 106.69 165.745 108.001C167.029 109.302 167.5 110.481 167.5 111.5Z" fill="#FF2E00" stroke="#EB0000" stroke-width="5"/>
<path d="M160.5 65C160.5 78.7651 150.427 89.5 138.5 89.5C126.573 89.5 116.5 78.7651 116.5 65C116.5 51.2349 126.573 40.5 138.5 40.5C150.427 40.5 160.5 51.2349 160.5 65Z" fill="white" stroke="#E1E1E1" stroke-width="5"/>
<ellipse cx="149.525" cy="66.35" rx="13.475" ry="14.85" fill="black"/>
<path d="M77.5 98C77.5 114.416 61.1822 128.5 40 128.5C18.8178 128.5 2.5 114.416 2.5 98C2.5 81.5838 18.8178 67.5 40 67.5C61.1822 67.5 77.5 81.5838 77.5 98Z" fill="#FFEE58" stroke="#FFA621" stroke-width="5"/>
</svg>
