<?xml version="1.0" ?><svg xmlns="http://www.w3.org/2000/svg" xmlns:xlink="http://www.w3.org/1999/xlink" width="512" height="512" fill="white"><path transform="scale(0.8 0.8)" d="M322.361 212.238L299.792 211.836C280.544 210.63 254.33 207.471 235.182 203.393C244.777 162.369 272.887 85.6277 320.745 86.1647C323.502 86.1524 326.391 86.0687 329.115 86.5091C368.684 92.9064 391.104 150.612 401.475 183.238C403.613 189.962 405.893 196.741 407.449 203.628L344.038 211.885C336.843 212.382 329.57 212.223 322.361 212.238Z"/><path transform="scale(0.8 0.8)" d="M151.525 184.288L133.643 177.765C135.231 172.622 145.683 162.461 149.531 158.383C179.492 126.638 226.225 99.274 269.793 91.0938L270.267 91.2646C270.117 92.1683 269.342 92.7273 268.751 93.3646L259.037 104.643C238.956 131.299 225.243 169.29 217.822 201.207L151.525 184.288Z"/><path transform="scale(0.8 0.8)" d="M492.325 183.764L424.517 200.776L420.224 186.203C409.209 147.874 397.86 120.201 371.129 90.8621L388.594 95.2904C428.67 107.338 463.449 128.276 492.335 158.347L501.775 168.772C504.268 171.599 507.002 174.426 508.805 177.754L492.325 183.764Z"/><path transform="scale(0.8 0.8)" d="M174.531 312.799L84.6657 312.783C84.9421 270.918 100.107 226.33 123.742 191.976C127.239 194.1 131.657 195.368 135.478 196.846C160.41 206.487 186.684 212.812 212.884 217.948L202.619 312.977L174.531 312.799Z"/><path transform="scale(0.8 0.8)" d="M469.531 312.8L439.7 312.615L428.586 217.4C448.387 214.856 475.511 207.617 494.111 201.484L516.858 193.281L517.815 193.098C519.554 194.034 520.51 196.383 521.528 197.988L528.301 209.199C544.321 237.314 553.186 267.371 556.422 299.39L557.199 312.838L469.531 312.8Z"/><path transform="scale(0.8 0.8)" d="M224.324 312.793L220.042 312.487L220.231 295.632L223.298 265.755C225.05 250.558 227.119 235.454 230.439 220.509C295.722 230.331 343.532 233.272 410.089 220.156L410.781 220.321C417.024 244.576 419.899 269.468 421.554 294.426L422.193 312.898L224.324 312.793Z"/><path transform="scale(0.8 0.8)" d="M411.595 420.24C411.26 422.629 404.335 420.277 401.881 419.891L381.36 416.891C354.701 413.397 327.475 411.437 300.588 412.887L253.995 417.862C246.197 418.993 238.365 420.669 230.52 421.358C224.349 391.144 220.544 360.683 219.829 329.84L421.818 330.143L419.534 368.079C417.86 385.721 415.784 402.99 411.595 420.24Z"/><path transform="scale(0.8 0.8)" d="M192.505 428.541C176.611 432.147 139.582 441.076 125.327 449.297C120.39 444.059 116.739 437.253 113.266 430.982C96.5221 400.751 85.2387 364.908 84.6673 330.068L202.655 330.113L204.752 367.281C206.567 386.309 209.983 404.926 213.173 423.742L192.505 428.541Z"/><path transform="scale(0.8 0.8)" d="M527.755 432.031L516.963 449.342C506.727 444.787 495.951 441.266 485.243 438.004L455.704 429.843C446.834 427.756 437.596 426.51 428.897 423.85C429.152 419.613 430.131 415.319 430.902 411.148L433.906 393.375C437.024 372.667 439.093 351.414 439.241 330.469L439.68 330.156L556.898 330.139C556.077 365.443 545.026 401.493 527.755 432.031Z"/><path transform="scale(0.8 0.8)" d="M328.509 554.954C280.977 561.885 255.558 503.85 243.26 467.293L234.561 438.107L312.89 430.086L339.541 430.201L395.822 436.444C399.517 437.014 403.257 437.841 406.97 438.193L407.3 438.222C396.396 477.68 375.554 545.725 328.509 554.954Z"/><path transform="scale(0.8 0.8)" d="M433.261 527.27C420.051 534.196 406.487 539.918 392.239 544.337C385.835 546.324 379.025 547.489 372.768 549.828C374.824 546.589 377.465 543.8 379.858 540.813C397.445 518.859 408.622 492.81 416.991 466.118L424.482 440.64C426.249 441.174 428.188 441.434 429.998 441.857L489.088 457.872C495.238 459.839 501.531 461.65 507.48 464.164C492.088 487.87 457.259 514.15 433.261 527.27Z"/><path transform="scale(0.8 0.8)" d="M209.527 528.076C186.983 516.208 166.124 499.786 148.804 481.159L140.781 471.933C138.678 469.292 136.725 466.54 134.398 464.086L216.768 441.094C218.033 441.437 217.749 442.458 218.073 443.656L220.153 450.878C230.557 485.992 244.134 523.633 270.127 550.402C264.434 548.356 258.293 547.441 252.484 545.689C237.819 541.266 223.005 535.324 209.527 528.076Z"/></svg>